<svg xmlns="http://www.w3.org/2000/svg" aria-hidden="true" style="width: 0; height: 0; position: absolute;"><symbol id="icon-arrow-down-circle" viewBox="0 0 24 24">
    <path fill="currentColor" fill-rule="evenodd" d="M12 2.25c-5.385 0-9.75 4.365-9.75 9.75s4.365 9.75 9.75 9.75 9.75-4.365 9.75-9.75S17.385 2.25 12 2.25Zm-.53 14.03a.75.75 0 0 0 1.06 0l3-3a.75.75 0 1 0-1.06-1.06l-1.72 1.72V8.25a.75.75 0 0 0-1.5 0v5.69l-1.72-1.72a.75.75 0 0 0-1.06 1.06l3 3Z" clip-rule="evenodd"></path>
</symbol><symbol id="icon-arrow-down-left" viewBox="0 0 24 24">
    <path fill="currentColor" fill-rule="evenodd" d="M20.03 3.97a.75.75 0 0 1 0 1.06L6.31 18.75h9.44a.75.75 0 0 1 0 1.5H4.5a.75.75 0 0 1-.75-.75V8.25a.75.75 0 0 1 1.5 0v9.44L18.97 3.97a.75.75 0 0 1 1.06 0Z" clip-rule="evenodd"></path>
</symbol><symbol id="icon-arrow-down-on-square-stack" viewBox="0 0 24 24">
    <path fill="currentColor" fill-rule="evenodd" d="M9.75 6.75h-3a3 3 0 0 0-3 3v7.5a3 3 0 0 0 3 3h7.5a3 3 0 0 0 3-3v-7.5a3 3 0 0 0-3-3h-3V1.5a.75.75 0 0 0-1.5 0v5.25Zm0 0h1.5v5.69l1.72-1.72a.75.75 0 1 1 1.06 1.06l-3 3a.75.75 0 0 1-1.06 0l-3-3a.75.75 0 1 1 1.06-1.06l1.72 1.72V6.75Z" clip-rule="evenodd"></path>
    <path fill="currentColor" d="M7.151 21.75a2.999 2.999 0 0 0 2.599 1.5h7.5a3 3 0 0 0 3-3v-7.5a3 3 0 0 0-1.5-2.599v7.099a4.5 4.5 0 0 1-4.5 4.5H7.151Z"></path>
</symbol><symbol id="icon-arrow-down-on-square" viewBox="0 0 24 24">
    <path fill="currentColor" d="M12 1.5a.75.75 0 0 1 .75.75V7.5h-1.5V2.25A.75.75 0 0 1 12 1.5Zm-.75 6v5.69l-1.72-1.72a.75.75 0 0 0-1.06 1.06l3 3a.75.75 0 0 0 1.06 0l3-3a.75.75 0 1 0-1.06-1.06l-1.72 1.72V7.5h3.75a3 3 0 0 1 3 3v9a3 3 0 0 1-3 3h-9a3 3 0 0 1-3-3v-9a3 3 0 0 1 3-3h3.75Z"></path>
</symbol><symbol id="icon-arrow-down-right" viewBox="0 0 24 24">
    <path fill="currentColor" fill-rule="evenodd" d="M3.97 3.97a.75.75 0 0 1 1.06 0l13.72 13.72V8.25a.75.75 0 0 1 1.5 0V19.5a.75.75 0 0 1-.75.75H8.25a.75.75 0 0 1 0-1.5h9.44L3.97 5.03a.75.75 0 0 1 0-1.06Z" clip-rule="evenodd"></path>
</symbol><symbol id="icon-arrow-down-tray" viewBox="0 0 24 24">
    <path fill="currentColor" fill-rule="evenodd" d="M12 2.25a.75.75 0 0 1 .75.75v11.69l3.22-3.22a.75.75 0 1 1 1.06 1.06l-4.5 4.5a.75.75 0 0 1-1.06 0l-4.5-4.5a.75.75 0 1 1 1.06-1.06l3.22 3.22V3a.75.75 0 0 1 .75-.75Zm-9 13.5a.75.75 0 0 1 .75.75v2.25a1.5 1.5 0 0 0 1.5 1.5h13.5a1.5 1.5 0 0 0 1.5-1.5V16.5a.75.75 0 0 1 1.5 0v2.25a3 3 0 0 1-3 3H5.25a3 3 0 0 1-3-3V16.5a.75.75 0 0 1 .75-.75Z" clip-rule="evenodd"></path>
</symbol><symbol id="icon-arrow-down" viewBox="0 0 24 24">
    <path fill="currentColor" fill-rule="evenodd" d="M12 2.25a.75.75 0 0 1 .75.75v16.19l6.22-6.22a.75.75 0 1 1 1.06 1.06l-7.5 7.5a.75.75 0 0 1-1.06 0l-7.5-7.5a.75.75 0 1 1 1.06-1.06l6.22 6.22V3a.75.75 0 0 1 .75-.75Z" clip-rule="evenodd"></path>
</symbol><symbol id="icon-arrow-left-circle" viewBox="0 0 24 24">
    <path fill="currentColor" fill-rule="evenodd" d="M12 2.25c-5.385 0-9.75 4.365-9.75 9.75s4.365 9.75 9.75 9.75 9.75-4.365 9.75-9.75S17.385 2.25 12 2.25Zm-4.28 9.22a.75.75 0 0 0 0 1.06l3 3a.75.75 0 1 0 1.06-1.06l-1.72-1.72h5.69a.75.75 0 0 0 0-1.5h-5.69l1.72-1.72a.75.75 0 0 0-1.06-1.06l-3 3Z" clip-rule="evenodd"></path>
</symbol><symbol id="icon-arrow-left-on-rectangle" viewBox="0 0 24 24">
    <path fill="currentColor" fill-rule="evenodd" d="M7.5 3.75A1.5 1.5 0 0 0 6 5.25v13.5a1.5 1.5 0 0 0 1.5 1.5h6a1.5 1.5 0 0 0 1.5-1.5V15a.75.75 0 0 1 1.5 0v3.75a3 3 0 0 1-3 3h-6a3 3 0 0 1-3-3V5.25a3 3 0 0 1 3-3h6a3 3 0 0 1 3 3V9A.75.75 0 0 1 15 9V5.25a1.5 1.5 0 0 0-1.5-1.5h-6Zm5.03 4.72a.75.75 0 0 1 0 1.06l-1.72 1.72h10.94a.75.75 0 0 1 0 1.5H10.81l1.72 1.72a.75.75 0 1 1-1.06 1.06l-3-3a.75.75 0 0 1 0-1.06l3-3a.75.75 0 0 1 1.06 0Z" clip-rule="evenodd"></path>
</symbol><symbol id="icon-arrow-left" viewBox="0 0 24 24">
    <path fill="currentColor" fill-rule="evenodd" d="M11.03 3.97a.75.75 0 0 1 0 1.06l-6.22 6.22H21a.75.75 0 0 1 0 1.5H4.81l6.22 6.22a.75.75 0 1 1-1.06 1.06l-7.5-7.5a.75.75 0 0 1 0-1.06l7.5-7.5a.75.75 0 0 1 1.06 0Z" clip-rule="evenodd"></path>
</symbol><symbol id="icon-arrow-long-down" viewBox="0 0 24 24">
    <path fill="currentColor" fill-rule="evenodd" d="M12 2.25a.75.75 0 0 1 .75.75v16.19l2.47-2.47a.75.75 0 1 1 1.06 1.06l-3.75 3.75a.75.75 0 0 1-1.06 0l-3.75-3.75a.75.75 0 1 1 1.06-1.06l2.47 2.47V3a.75.75 0 0 1 .75-.75Z" clip-rule="evenodd"></path>
</symbol><symbol id="icon-arrow-long-left" viewBox="0 0 24 24">
    <path fill="currentColor" fill-rule="evenodd" d="M7.28 7.72a.75.75 0 0 1 0 1.06l-2.47 2.47H21a.75.75 0 0 1 0 1.5H4.81l2.47 2.47a.75.75 0 1 1-1.06 1.06l-3.75-3.75a.75.75 0 0 1 0-1.06l3.75-3.75a.75.75 0 0 1 1.06 0Z" clip-rule="evenodd"></path>
</symbol><symbol id="icon-arrow-long-right" viewBox="0 0 24 24">
    <path fill="currentColor" fill-rule="evenodd" d="M16.72 7.72a.75.75 0 0 1 1.06 0l3.75 3.75a.75.75 0 0 1 0 1.06l-3.75 3.75a.75.75 0 1 1-1.06-1.06l2.47-2.47H3a.75.75 0 0 1 0-1.5h16.19l-2.47-2.47a.75.75 0 0 1 0-1.06Z" clip-rule="evenodd"></path>
</symbol><symbol id="icon-arrow-long-up" viewBox="0 0 24 24">
    <path fill="currentColor" fill-rule="evenodd" d="M11.47 2.47a.75.75 0 0 1 1.06 0l3.75 3.75a.75.75 0 0 1-1.06 1.06l-2.47-2.47V21a.75.75 0 0 1-1.5 0V4.81L8.78 7.28a.75.75 0 0 1-1.06-1.06l3.75-3.75Z" clip-rule="evenodd"></path>
</symbol><symbol id="icon-arrow-path-rounded-square" viewBox="0 0 24 24">
    <path fill="currentColor" fill-rule="evenodd" d="M12 5.25c1.213 0 2.415.046 3.605.135a3.256 3.256 0 0 1 3.01 3.01c.044.583.077 1.17.1 1.759L17.03 8.47a.75.75 0 1 0-1.06 1.06l3 3a.75.75 0 0 0 1.06 0l3-3a.75.75 0 0 0-1.06-1.06l-1.752 1.751c-.023-.65-.06-1.296-.108-1.939a4.756 4.756 0 0 0-4.392-4.392 49.422 49.422 0 0 0-7.436 0A4.756 4.756 0 0 0 3.89 8.282a37.26 37.26 0 0 0-.046.672.75.75 0 1 0 1.497.092c.013-.217.028-.434.044-.651a3.256 3.256 0 0 1 3.01-3.01c1.19-.09 2.392-.135 3.605-.135Zm-6.97 6.22a.75.75 0 0 0-1.06 0l-3 3a.75.75 0 1 0 1.06 1.06l1.752-1.751c.023.65.06 1.296.108 1.939a4.756 4.756 0 0 0 4.392 4.392 49.413 49.413 0 0 0 7.436 0 4.756 4.756 0 0 0 4.392-4.392c.017-.223.032-.447.046-.672a.75.75 0 0 0-1.497-.092c-.013.217-.028.434-.044.651a3.256 3.256 0 0 1-3.01 3.01 47.953 47.953 0 0 1-7.21 0 3.256 3.256 0 0 1-3.01-3.01 47.759 47.759 0 0 1-.1-1.759L6.97 15.53a.75.75 0 0 0 1.06-1.06l-3-3Z" clip-rule="evenodd"></path>
</symbol><symbol id="icon-arrow-path" viewBox="0 0 24 24">
    <path fill="currentColor" fill-rule="evenodd" d="M4.755 10.059a7.5 7.5 0 0 1 12.548-3.364l1.903 1.903h-3.183a.75.75 0 1 0 0 1.5h4.992a.75.75 0 0 0 .75-.75V4.356a.75.75 0 0 0-1.5 0v3.18l-1.9-1.9A9 9 0 0 0 3.306 9.67a.75.75 0 1 0 1.45.388Zm15.408 3.352a.75.75 0 0 0-.919.53 7.5 7.5 0 0 1-12.548 3.364l-1.902-1.903h3.183a.75.75 0 0 0 0-1.5H2.984a.75.75 0 0 0-.75.75v4.992a.75.75 0 0 0 1.5 0v-3.18l1.9 1.9a9 9 0 0 0 15.059-4.035.75.75 0 0 0-.53-.918Z" clip-rule="evenodd"></path>
</symbol><symbol id="icon-arrow-right-circle" viewBox="0 0 24 24">
    <path fill="currentColor" fill-rule="evenodd" d="M12 2.25c-5.385 0-9.75 4.365-9.75 9.75s4.365 9.75 9.75 9.75 9.75-4.365 9.75-9.75S17.385 2.25 12 2.25Zm4.28 10.28a.75.75 0 0 0 0-1.06l-3-3a.75.75 0 1 0-1.06 1.06l1.72 1.72H8.25a.75.75 0 0 0 0 1.5h5.69l-1.72 1.72a.75.75 0 1 0 1.06 1.06l3-3Z" clip-rule="evenodd"></path>
</symbol><symbol id="icon-arrow-right-on-rectangle" viewBox="0 0 24 24">
    <path fill="currentColor" fill-rule="evenodd" d="M7.5 3.75A1.5 1.5 0 0 0 6 5.25v13.5a1.5 1.5 0 0 0 1.5 1.5h6a1.5 1.5 0 0 0 1.5-1.5V15a.75.75 0 0 1 1.5 0v3.75a3 3 0 0 1-3 3h-6a3 3 0 0 1-3-3V5.25a3 3 0 0 1 3-3h6a3 3 0 0 1 3 3V9A.75.75 0 0 1 15 9V5.25a1.5 1.5 0 0 0-1.5-1.5h-6Zm10.72 4.72a.75.75 0 0 1 1.06 0l3 3a.75.75 0 0 1 0 1.06l-3 3a.75.75 0 1 1-1.06-1.06l1.72-1.72H9a.75.75 0 0 1 0-1.5h10.94l-1.72-1.72a.75.75 0 0 1 0-1.06Z" clip-rule="evenodd"></path>
</symbol><symbol id="icon-arrow-right" viewBox="0 0 24 24">
    <path fill="currentColor" fill-rule="evenodd" d="M12.97 3.97a.75.75 0 0 1 1.06 0l7.5 7.5a.75.75 0 0 1 0 1.06l-7.5 7.5a.75.75 0 1 1-1.06-1.06l6.22-6.22H3a.75.75 0 0 1 0-1.5h16.19l-6.22-6.22a.75.75 0 0 1 0-1.06Z" clip-rule="evenodd"></path>
</symbol><symbol id="icon-arrow-small-down" viewBox="0 0 24 24">
    <path fill="currentColor" fill-rule="evenodd" d="M12 3.75a.75.75 0 0 1 .75.75v13.19l5.47-5.47a.75.75 0 1 1 1.06 1.06l-6.75 6.75a.75.75 0 0 1-1.06 0l-6.75-6.75a.75.75 0 1 1 1.06-1.06l5.47 5.47V4.5a.75.75 0 0 1 .75-.75Z" clip-rule="evenodd"></path>
</symbol><symbol id="icon-arrow-small-left" viewBox="0 0 24 24">
    <path fill="currentColor" fill-rule="evenodd" d="M20.25 12a.75.75 0 0 1-.75.75H6.31l5.47 5.47a.75.75 0 1 1-1.06 1.06l-6.75-6.75a.75.75 0 0 1 0-1.06l6.75-6.75a.75.75 0 1 1 1.06 1.06l-5.47 5.47H19.5a.75.75 0 0 1 .75.75Z" clip-rule="evenodd"></path>
</symbol><symbol id="icon-arrow-small-right" viewBox="0 0 24 24">
    <path fill="currentColor" fill-rule="evenodd" d="M3.75 12a.75.75 0 0 1 .75-.75h13.19l-5.47-5.47a.75.75 0 0 1 1.06-1.06l6.75 6.75a.75.75 0 0 1 0 1.06l-6.75 6.75a.75.75 0 1 1-1.06-1.06l5.47-5.47H4.5a.75.75 0 0 1-.75-.75Z" clip-rule="evenodd"></path>
</symbol><symbol id="icon-arrow-small-up" viewBox="0 0 24 24">
    <path fill="currentColor" fill-rule="evenodd" d="M12 20.25a.75.75 0 0 1-.75-.75V6.31l-5.47 5.47a.75.75 0 0 1-1.06-1.06l6.75-6.75a.75.75 0 0 1 1.06 0l6.75 6.75a.75.75 0 1 1-1.06 1.06l-5.47-5.47V19.5a.75.75 0 0 1-.75.75Z" clip-rule="evenodd"></path>
</symbol><symbol id="icon-arrow-top-right-on-square" viewBox="0 0 24 24">
    <path fill="currentColor" fill-rule="evenodd" d="M15.75 2.25H21a.75.75 0 0 1 .75.75v5.25a.75.75 0 0 1-1.5 0V4.81L8.03 17.03a.75.75 0 0 1-1.06-1.06L19.19 3.75h-3.44a.75.75 0 0 1 0-1.5Zm-10.5 4.5a1.5 1.5 0 0 0-1.5 1.5v10.5a1.5 1.5 0 0 0 1.5 1.5h10.5a1.5 1.5 0 0 0 1.5-1.5V10.5a.75.75 0 0 1 1.5 0v8.25a3 3 0 0 1-3 3H5.25a3 3 0 0 1-3-3V8.25a3 3 0 0 1 3-3h8.25a.75.75 0 0 1 0 1.5H5.25Z" clip-rule="evenodd"></path>
</symbol><symbol id="icon-arrow-trending-down" viewBox="0 0 24 24">
    <path fill="currentColor" fill-rule="evenodd" d="M1.72 5.47a.75.75 0 0 1 1.06 0L9 11.69l3.756-3.756a.75.75 0 0 1 .985-.066 12.698 12.698 0 0 1 4.575 6.832l.308 1.149 2.277-3.943a.75.75 0 1 1 1.299.75l-3.182 5.51a.75.75 0 0 1-1.025.275l-5.511-3.181a.75.75 0 0 1 .75-1.3l3.943 2.277-.308-1.149a11.194 11.194 0 0 0-3.528-5.617l-3.809 3.81a.75.75 0 0 1-1.06 0L1.72 6.53a.75.75 0 0 1 0-1.061Z" clip-rule="evenodd"></path>
</symbol><symbol id="icon-arrow-trending-up" viewBox="0 0 24 24">
    <path fill="currentColor" fill-rule="evenodd" d="M15.22 6.268a.75.75 0 0 1 .968-.432l5.942 2.28a.75.75 0 0 1 .431.97l-2.28 5.941a.75.75 0 1 1-1.4-.537l1.63-4.251-1.086.483a11.2 11.2 0 0 0-5.45 5.174.75.75 0 0 1-1.199.19L9 12.31l-6.22 6.22a.75.75 0 1 1-1.06-1.06l6.75-6.75a.75.75 0 0 1 1.06 0l3.606 3.605a12.694 12.694 0 0 1 5.68-4.973l1.086-.484-4.251-1.631a.75.75 0 0 1-.432-.97Z" clip-rule="evenodd"></path>
</symbol><symbol id="icon-arrow-up-circle" viewBox="0 0 24 24">
    <path fill="currentColor" fill-rule="evenodd" d="M12 2.25c-5.385 0-9.75 4.365-9.75 9.75s4.365 9.75 9.75 9.75 9.75-4.365 9.75-9.75S17.385 2.25 12 2.25Zm.53 5.47a.75.75 0 0 0-1.06 0l-3 3a.75.75 0 1 0 1.06 1.06l1.72-1.72v5.69a.75.75 0 0 0 1.5 0v-5.69l1.72 1.72a.75.75 0 1 0 1.06-1.06l-3-3Z" clip-rule="evenodd"></path>
</symbol><symbol id="icon-arrow-up-left" viewBox="0 0 24 24">
    <path fill="currentColor" fill-rule="evenodd" d="M5.25 6.31v9.44a.75.75 0 0 1-1.5 0V4.5a.75.75 0 0 1 .75-.75h11.25a.75.75 0 0 1 0 1.5H6.31l13.72 13.72a.75.75 0 1 1-1.06 1.06L5.25 6.31Z" clip-rule="evenodd"></path>
</symbol><symbol id="icon-arrow-up-on-square-stack" viewBox="0 0 24 24">
    <path fill="currentColor" d="M9.97.97a.75.75 0 0 1 1.06 0l3 3a.75.75 0 0 1-1.06 1.06l-1.72-1.72v3.44h-1.5V3.31L8.03 5.03a.75.75 0 0 1-1.06-1.06l3-3Zm-.22 5.78v6a.75.75 0 0 0 1.5 0v-6h3a3 3 0 0 1 3 3v7.5a3 3 0 0 1-3 3h-7.5a3 3 0 0 1-3-3v-7.5a3 3 0 0 1 3-3h3Zm-2.599 15a2.999 2.999 0 0 0 2.599 1.5h7.5a3 3 0 0 0 3-3v-7.5a3 3 0 0 0-1.5-2.599v7.099a4.5 4.5 0 0 1-4.5 4.5H7.151Z"></path>
</symbol><symbol id="icon-arrow-up-on-square" viewBox="0 0 24 24">
    <path fill="currentColor" d="M11.47 1.72a.75.75 0 0 1 1.06 0l3 3a.75.75 0 0 1-1.06 1.06l-1.72-1.72V7.5h-1.5V4.06L9.53 5.78a.75.75 0 0 1-1.06-1.06l3-3Zm-.22 5.78V15a.75.75 0 0 0 1.5 0V7.5h3.75a3 3 0 0 1 3 3v9a3 3 0 0 1-3 3h-9a3 3 0 0 1-3-3v-9a3 3 0 0 1 3-3h3.75Z"></path>
</symbol><symbol id="icon-arrow-up-right" viewBox="0 0 24 24">
    <path fill="currentColor" fill-rule="evenodd" d="M8.25 3.75H19.5a.75.75 0 0 1 .75.75v11.25a.75.75 0 0 1-1.5 0V6.31L5.03 20.03a.75.75 0 0 1-1.06-1.06L17.69 5.25H8.25a.75.75 0 0 1 0-1.5Z" clip-rule="evenodd"></path>
</symbol><symbol id="icon-arrow-up-tray" viewBox="0 0 24 24">
    <path fill="currentColor" fill-rule="evenodd" d="M11.47 2.47a.75.75 0 0 1 1.06 0l4.5 4.5a.75.75 0 0 1-1.06 1.06l-3.22-3.22V16.5a.75.75 0 0 1-1.5 0V4.81L8.03 8.03a.75.75 0 0 1-1.06-1.06l4.5-4.5ZM3 15.75a.75.75 0 0 1 .75.75v2.25a1.5 1.5 0 0 0 1.5 1.5h13.5a1.5 1.5 0 0 0 1.5-1.5V16.5a.75.75 0 0 1 1.5 0v2.25a3 3 0 0 1-3 3H5.25a3 3 0 0 1-3-3V16.5a.75.75 0 0 1 .75-.75Z" clip-rule="evenodd"></path>
</symbol><symbol id="icon-arrow-up" viewBox="0 0 24 24">
    <path fill="currentColor" fill-rule="evenodd" d="M11.47 2.47a.75.75 0 0 1 1.06 0l7.5 7.5a.75.75 0 1 1-1.06 1.06l-6.22-6.22V21a.75.75 0 0 1-1.5 0V4.81l-6.22 6.22a.75.75 0 1 1-1.06-1.06l7.5-7.5Z" clip-rule="evenodd"></path>
</symbol><symbol id="icon-arrow-uturn-down" viewBox="0 0 24 24">
    <path fill="currentColor" fill-rule="evenodd" d="M15 3.75A5.25 5.25 0 0 0 9.75 9v10.19l4.72-4.72a.75.75 0 1 1 1.06 1.06l-6 6a.75.75 0 0 1-1.06 0l-6-6a.75.75 0 1 1 1.06-1.06l4.72 4.72V9a6.75 6.75 0 0 1 13.5 0v3a.75.75 0 0 1-1.5 0V9c0-2.9-2.35-5.25-5.25-5.25Z" clip-rule="evenodd"></path>
</symbol><symbol id="icon-arrow-uturn-left" viewBox="0 0 24 24">
    <path fill="currentColor" fill-rule="evenodd" d="M9.53 2.47a.75.75 0 0 1 0 1.06L4.81 8.25H15a6.75 6.75 0 0 1 0 13.5h-3a.75.75 0 0 1 0-1.5h3a5.25 5.25 0 1 0 0-10.5H4.81l4.72 4.72a.75.75 0 1 1-1.06 1.06l-6-6a.75.75 0 0 1 0-1.06l6-6a.75.75 0 0 1 1.06 0Z" clip-rule="evenodd"></path>
</symbol><symbol id="icon-arrow-uturn-right" viewBox="0 0 24 24">
    <path fill="currentColor" fill-rule="evenodd" d="M14.47 2.47a.75.75 0 0 1 1.06 0l6 6a.75.75 0 0 1 0 1.06l-6 6a.75.75 0 1 1-1.06-1.06l4.72-4.72H9a5.25 5.25 0 1 0 0 10.5h3a.75.75 0 0 1 0 1.5H9a6.75 6.75 0 0 1 0-13.5h10.19l-4.72-4.72a.75.75 0 0 1 0-1.06Z" clip-rule="evenodd"></path>
</symbol><symbol id="icon-arrow-uturn-up" viewBox="0 0 24 24">
    <path fill="currentColor" fill-rule="evenodd" d="M21.53 9.53a.75.75 0 0 1-1.06 0l-4.72-4.72V15a6.75 6.75 0 0 1-13.5 0v-3a.75.75 0 0 1 1.5 0v3a5.25 5.25 0 1 0 10.5 0V4.81L9.53 9.53a.75.75 0 0 1-1.06-1.06l6-6a.75.75 0 0 1 1.06 0l6 6a.75.75 0 0 1 0 1.06Z" clip-rule="evenodd"></path>
</symbol><symbol id="icon-arrows-pointing-in" viewBox="0 0 24 24">
    <path fill="currentColor" fill-rule="evenodd" d="M3.22 3.22a.75.75 0 0 1 1.06 0l3.97 3.97V4.5a.75.75 0 0 1 1.5 0V9a.75.75 0 0 1-.75.75H4.5a.75.75 0 0 1 0-1.5h2.69L3.22 4.28a.75.75 0 0 1 0-1.06Zm17.56 0a.75.75 0 0 1 0 1.06l-3.97 3.97h2.69a.75.75 0 0 1 0 1.5H15a.75.75 0 0 1-.75-.75V4.5a.75.75 0 0 1 1.5 0v2.69l3.97-3.97a.75.75 0 0 1 1.06 0ZM3.75 15a.75.75 0 0 1 .75-.75H9a.75.75 0 0 1 .75.75v4.5a.75.75 0 0 1-1.5 0v-2.69l-3.97 3.97a.75.75 0 0 1-1.06-1.06l3.97-3.97H4.5a.75.75 0 0 1-.75-.75Zm10.5 0a.75.75 0 0 1 .75-.75h4.5a.75.75 0 0 1 0 1.5h-2.69l3.97 3.97a.75.75 0 1 1-1.06 1.06l-3.97-3.97v2.69a.75.75 0 0 1-1.5 0V15Z" clip-rule="evenodd"></path>
</symbol><symbol id="icon-arrows-pointing-out" viewBox="0 0 24 24">
    <path fill="currentColor" fill-rule="evenodd" d="M15 3.75a.75.75 0 0 1 .75-.75h4.5a.75.75 0 0 1 .75.75v4.5a.75.75 0 0 1-1.5 0V5.56l-3.97 3.97a.75.75 0 1 1-1.06-1.06l3.97-3.97h-2.69a.75.75 0 0 1-.75-.75Zm-12 0A.75.75 0 0 1 3.75 3h4.5a.75.75 0 0 1 0 1.5H5.56l3.97 3.97a.75.75 0 0 1-1.06 1.06L4.5 5.56v2.69a.75.75 0 0 1-1.5 0v-4.5Zm11.47 11.78a.75.75 0 1 1 1.06-1.06l3.97 3.97v-2.69a.75.75 0 0 1 1.5 0v4.5a.75.75 0 0 1-.75.75h-4.5a.75.75 0 0 1 0-1.5h2.69l-3.97-3.97Zm-4.94-1.06a.75.75 0 0 1 0 1.06L5.56 19.5h2.69a.75.75 0 0 1 0 1.5h-4.5a.75.75 0 0 1-.75-.75v-4.5a.75.75 0 0 1 1.5 0v2.69l3.97-3.97a.75.75 0 0 1 1.06 0Z" clip-rule="evenodd"></path>
</symbol><symbol id="icon-arrows-right-left" viewBox="0 0 24 24">
    <path fill="currentColor" fill-rule="evenodd" d="M15.97 2.47a.75.75 0 0 1 1.06 0l4.5 4.5a.75.75 0 0 1 0 1.06l-4.5 4.5a.75.75 0 1 1-1.06-1.06l3.22-3.22H7.5a.75.75 0 0 1 0-1.5h11.69l-3.22-3.22a.75.75 0 0 1 0-1.06Zm-7.94 9a.75.75 0 0 1 0 1.06l-3.22 3.22H16.5a.75.75 0 0 1 0 1.5H4.81l3.22 3.22a.75.75 0 1 1-1.06 1.06l-4.5-4.5a.75.75 0 0 1 0-1.06l4.5-4.5a.75.75 0 0 1 1.06 0Z" clip-rule="evenodd"></path>
</symbol><symbol id="icon-arrows-up-down" viewBox="0 0 24 24">
    <path fill="currentColor" fill-rule="evenodd" d="M6.97 2.47a.75.75 0 0 1 1.06 0l4.5 4.5a.75.75 0 0 1-1.06 1.06L8.25 4.81V16.5a.75.75 0 0 1-1.5 0V4.81L3.53 8.03a.75.75 0 0 1-1.06-1.06l4.5-4.5Zm9.53 4.28a.75.75 0 0 1 .75.75v11.69l3.22-3.22a.75.75 0 1 1 1.06 1.06l-4.5 4.5a.75.75 0 0 1-1.06 0l-4.5-4.5a.75.75 0 1 1 1.06-1.06l3.22 3.22V7.5a.75.75 0 0 1 .75-.75Z" clip-rule="evenodd"></path>
</symbol></svg>